<svg width="380" height="62" viewBox="0 0 380 62" fill="none" xmlns="http://www.w3.org/2000/svg">
<path fill-rule="evenodd" clip-rule="evenodd" d="M176 25.8C176 24.2 177.4 23 179 23C180.6 23 181.9 24.2 182 25.8C182 27.4 180.6 28.6 179 28.6C177.3 28.6 176 27.3 176 25.8ZM15.5 38.3999V38.0999C18.3 37.3999 20.6 35.3999 20.6 31.8999C20.6 27.5999 17.5 24.3999 11.2 24.3999H0V53.4999H11.8C18.5 53.4999 21.7 50.0999 21.7 45.5999C21.7 41.1999 18.6 38.5999 15.5 38.3999ZM5.3 28.7999H10.6C13.7 28.7999 15.3 30.3999 15.3 32.6999C15.3 35.2999 13.2 36.7999 10.5 36.7999H5.3V28.7999ZM10.9 49.0999H5.3V40.5999H11.1C14.4 40.5999 16.4 42.5999 16.4 45.1999C16.3 47.4999 14.8 49.0999 10.9 49.0999ZM31.1996 24.3999H26.0996V53.4999H31.1996V24.3999ZM35.5 42.6999C35.5 35.8999 39.6 31.3999 46 31.3999C52.4 31.3999 56.5 35.8999 56.5 42.6999C56.5 49.3999 52.4 53.8999 46 53.8999C39.6 53.8999 35.5 49.3999 35.5 42.6999ZM40.7 42.6999C40.7 46.5999 42.5 49.7999 46 49.7999C49.5 49.7999 51.2 46.6999 51.2 42.6999C51.2 38.6999 49.5 35.4999 46 35.4999C42.4 35.4999 40.7 38.6999 40.7 42.6999ZM70.4004 35.4999C72.9004 35.4999 74.4004 37.0999 74.8004 39.1999H79.7004C79.3004 34.4999 75.7004 31.3999 70.3004 31.3999C63.9004 31.3999 59.9004 35.9999 59.9004 42.6999C59.9004 49.2999 63.8004 53.8999 70.4004 53.8999C75.9004 53.8999 79.4004 50.5999 79.7004 45.9999H74.8004C74.4004 48.2999 72.7004 49.6999 70.4004 49.6999C67.2004 49.6999 65.1004 46.9999 65.1004 42.5999C65.1004 38.1999 67.2004 35.4999 70.4004 35.4999ZM97.3004 31.6999H103.3L94.8004 41.0999L103.8 53.4999H97.6004L90.9004 44.1999L89.1004 46.1999V53.4999H83.9004V24.3999H89.1004V40.3999H89.4004L97.3004 31.6999ZM115.301 35.4999C117.801 35.4999 119.301 37.0999 119.701 39.1999H124.601C124.201 34.4999 120.601 31.3999 115.201 31.3999C108.801 31.3999 104.801 35.9999 104.801 42.6999C104.801 49.2999 108.701 53.8999 115.301 53.8999C120.801 53.8999 124.301 50.5999 124.601 45.9999H119.701C119.301 48.2999 117.601 49.6999 115.301 49.6999C112.101 49.6999 110.001 46.9999 110.001 42.5999C110.101 38.1999 112.201 35.4999 115.301 35.4999ZM134.101 35.3999C135.101 32.8999 137.201 31.3999 140.601 31.3999C145.201 31.3999 148.201 34.2999 148.001 39.5999V53.4999H142.901V40.3999C142.901 37.3999 141.301 35.6999 138.601 35.6999C135.901 35.6999 133.901 37.4999 133.901 40.6999V53.4999H128.801V24.3999H133.801V35.3999H134.101ZM162.3 31.3999C157.7 31.3999 154.2 33.3999 153.1 37.3999L157.9 38.0999C158.4 36.5999 159.9 35.2999 162.4 35.2999C164.8 35.2999 166.1 36.4999 166.1 38.6999V38.7999C166.1 40.1363 164.91 40.2821 161.892 40.6515L161.892 40.6516L161.892 40.6516L161.891 40.6516C161.522 40.6968 161.126 40.7454 160.7 40.7999C156.5 41.2999 152.4 42.4999 152.4 47.3999C152.4 51.6999 155.5 53.9999 159.7 53.9999C163.1 53.9999 165.2 52.3999 166.1 50.5999H166.3V53.5999H171.2V38.8999C171.2 33.0999 166.5 31.3999 162.3 31.3999ZM166.1 45.6999C166.1 48.0999 164.1 50.1999 161 50.1999C158.9 50.1999 157.3 49.1999 157.3 47.2999C157.3 45.2999 159 44.4999 161.3 44.1999C161.49 44.1708 161.709 44.1396 161.947 44.1056L161.947 44.1056C163.344 43.9062 165.402 43.6125 166 43.0999V45.6999H166.1ZM181.5 31.7002H176.4V53.5002H181.5V31.7002ZM192.001 35.3999C193.001 32.9999 195.201 31.3999 198.501 31.3999C203.001 31.3999 206.001 34.3999 205.801 39.5999V53.4999H200.701V40.3999C200.701 37.3999 199.201 35.6999 196.501 35.6999C193.801 35.6999 191.901 37.4999 191.901 40.6999V53.4999H186.801V31.6999H191.701V35.3999H192.001Z" fill="black"/>
<path fill-rule="evenodd" clip-rule="evenodd" d="M250 21.4C249.5 21.9 248.8 21.9 248.3 21.4L239 12.2C238.5 11.7 238.2 11.1 238.3 10.4C238.8 4.6 243.5 0 249.2 0C254.9 0 259.5 4.6 260 10.4C260 11.1 259.8 11.7 259.3 12.2L250 21.4ZM257.8 9.5C257.4 9.3 257 9.2 256.5 9.2C255.2 9.2 254.1 10 253.4 11.4L251.1 17.9C251.1 18 251.2 18.1 251.3 18L257.9 11.1C258.4 10.6 258.4 9.8 257.8 9.5ZM249.1 7.8C248 7.8 246.9 8.6 246.3 9.7C246.2 10 246.2 10.3 246.2 10.5L248.8 18.7C248.9 19 249.3 19 249.4 18.7L252 10.5C252 10.3 252 10 251.9 9.7C251.3 8.6 250.2 7.8 249.1 7.8ZM241.8 9.2C241.4 9.2 240.9 9.3 240.5 9.5C239.9 9.7 239.9 10.5 240.3 11L246.9 17.9C247 18 247.1 17.9 247.1 17.8L244.8 11.3C244.2 10.1 243.2 9.2 241.8 9.2ZM286.501 35.2999H286.701V24.3999H291.901V53.4999H286.801V50.0999H286.501C285.701 51.6999 284.101 53.8999 280.301 53.8999C275.101 53.8999 271.301 49.7999 271.301 42.5999C271.301 35.2999 275.301 31.3999 280.301 31.3999C284.101 31.3999 285.701 33.6999 286.501 35.2999ZM276.501 42.5999C276.501 46.6999 278.301 49.6999 281.701 49.6999C284.901 49.6999 286.801 46.7999 286.801 42.5999C286.801 38.2999 285.001 35.5999 281.701 35.5999C278.301 35.5999 276.501 38.4999 276.501 42.5999ZM311.301 42.6999C311.301 35.8999 315.401 31.3999 321.801 31.3999C328.201 31.3999 332.301 35.8999 332.301 42.6999C332.301 49.3999 328.201 53.8999 321.801 53.8999C315.401 53.8999 311.301 49.3999 311.301 42.6999ZM316.501 42.6999C316.501 46.5999 318.301 49.7999 321.801 49.7999C325.301 49.7999 327.001 46.6999 327.001 42.6999C327.001 38.6999 325.301 35.4999 321.801 35.4999C318.201 35.4999 316.501 38.7999 316.501 42.6999ZM373.2 41.0999L369.5 40.2999C367.3 39.7999 366.4 38.9999 366.4 37.7999C366.4 36.2999 368 35.2999 370.2 35.2999C372.6 35.2999 373.8 36.5999 374.2 37.9999L378.9 37.4999C378.2 33.7999 375.2 31.3999 370.1 31.3999C364.8 31.3999 361.3 33.9999 361.3 37.9999C361.3 41.1999 363.2 43.2999 367.4 44.1999L371.1 44.9999C373.1 45.3999 374 46.1999 374 47.4999C374 48.9999 372.4 50.0999 369.9 50.0999C367.5 50.0999 366 49.0999 365.6 47.0999L360.6 47.5999C361.2 51.5999 364.6 53.9999 370 53.9999C375.5 53.9999 379.3 51.1999 379.3 46.9999C379.3 43.8999 377.3 41.8999 373.2 41.0999ZM342 35.2999C342.7 33.6999 344.4 31.3999 348.2 31.3999C353.3 31.3999 357.2 35.2999 357.1 42.5999C357.1 49.7999 353.2 53.8999 348.1 53.8999C344.4 53.8999 342.7 51.6999 341.9 50.0999H341.7V61.6999H336.6V31.6999H341.7V35.2999H342ZM341.7 42.5999C341.7 46.8999 343.5 49.6999 346.8 49.6999C350.2 49.6999 352 46.6999 352 42.5999C352 38.4999 350.2 35.5999 346.8 35.5999C343.5 35.5999 341.7 38.3999 341.7 42.5999ZM302.501 35.3001H302.301V31.7001H297.301V53.5001H302.401V40.7001C302.401 37.9001 304.501 36.0001 307.301 36.0001C308.201 36.0001 309.201 36.2001 309.701 36.3001V31.6001C309.201 31.5001 308.401 31.5001 307.901 31.5001C305.401 31.4001 303.301 32.8001 302.501 35.3001ZM226.2 24.3999L216 53.4999H221.6L224 46.2999H234.9L237.3 53.4999H242.9L232.6 24.3999H226.2ZM225.4 42.0999L229.3 30.3999H229.5L233.4 42.0999H225.4ZM246.699 31.7002H251.799V53.5002H246.699V31.7002ZM249.301 23C247.701 23 246.301 24.2 246.301 25.8C246.301 27.3 247.601 28.6 249.301 28.6C250.901 28.6 252.301 27.4 252.301 25.8C252.301 24.2 251.001 23 249.301 23ZM262.199 35.3001H262.399C263.199 32.8001 265.299 31.4001 267.799 31.5001C268.299 31.5001 269.099 31.5001 269.599 31.6001V36.3001C269.099 36.2001 268.099 36.0001 267.199 36.0001C264.399 36.0001 262.299 37.9001 262.299 40.7001V53.5001H257.199V31.7001H262.199V35.3001Z" fill="#17CF73"/>
</svg>
